<svg width="283" height="55" viewBox="0 0 283 55" fill="none" xmlns="http://www.w3.org/2000/svg">
<g clip-path="url(#clip0_2_110)">
<path d="M90.9998 22.66C90.9998 23.14 90.9998 23.54 90.9998 24.08C91.0435 27.8912 89.5715 31.5636 86.9076 34.2895C85.5885 35.6392 84.0165 36.7158 82.2814 37.458C80.5462 38.2002 78.6819 38.5934 76.7948 38.615C72.9836 38.6588 69.3112 37.1868 66.5853 34.5228C63.8595 31.8589 62.3035 28.2212 62.2598 24.41C62.2598 16.35 68.7498 10.52 76.6998 10.52C83.1498 10.52 88.6998 14.86 90.1898 20.07H82.4698C81.8958 18.998 81.0381 18.1045 79.9905 17.4872C78.9428 16.8699 77.7456 16.5526 76.5298 16.57C75.5228 16.5738 74.5271 16.7827 73.6036 17.1841C72.68 17.5855 71.848 18.1709 71.1583 18.9046C70.4686 19.6383 69.9356 20.5049 69.592 21.4515C69.2484 22.3981 69.1013 23.4047 69.1598 24.41C69.1598 30.06 73.1598 32.51 76.5598 32.51C79.9598 32.51 82.2898 30.79 83.0198 28.17H74.9998V22.66H90.9998Z" fill="white"/>
<path d="M115.58 38H109.58V35.83H109.5C108.5 37.83 105.97 38.71 103.59 38.71C97.1799 38.71 93.4199 33.71 93.4199 27.88C93.4199 21.24 98.1999 17.08 103.59 17.08C106.91 17.08 108.77 18.69 109.5 19.93H109.58V17.77H115.58V38ZM104.46 33C105.137 33.0099 105.809 32.8821 106.435 32.6245C107.061 32.3669 107.629 31.9848 108.103 31.5014C108.577 31.018 108.948 30.4433 109.193 29.8122C109.438 29.1811 109.553 28.5067 109.53 27.83C109.547 27.1482 109.425 26.4701 109.173 25.8364C108.921 25.2027 108.543 24.6265 108.063 24.1424C107.582 23.6583 107.009 23.2764 106.377 23.0195C105.745 22.7626 105.068 22.6361 104.386 22.6476C103.704 22.659 103.032 22.8082 102.409 23.0862C101.786 23.3642 101.226 23.7652 100.762 24.2651C100.298 24.7651 99.9403 25.3537 99.7096 25.9955C99.4789 26.6373 99.3804 27.3191 99.4199 28C99.4133 28.6642 99.539 29.3231 99.7898 29.9381C100.041 30.5532 100.411 31.1121 100.881 31.5822C101.35 32.0523 101.908 32.4243 102.523 32.6763C103.137 32.9283 103.796 33.0554 104.46 33.05V33Z" fill="white"/>
<path d="M120 17.77H125.65V19.93H125.72C126.2 19.09 127.51 17.08 131.3 17.08C132.518 17.0562 133.716 17.3842 134.752 18.0245C135.788 18.6648 136.617 19.5903 137.14 20.69C137.74 19.7309 138.544 18.9159 139.495 18.3032C140.445 17.6904 141.52 17.2949 142.641 17.145C143.762 16.9951 144.903 17.0943 145.981 17.4357C147.059 17.7771 148.049 18.3522 148.88 19.12C150.78 21.12 151.07 22.48 151.07 26.97V38H145V27.26C145 25.62 145 22.77 141.89 22.77C138.54 22.77 138.54 25.83 138.54 26.97V38H132.5V27C132.5 25.91 132.5 22.77 129.5 22.77C126.07 22.77 126.07 26.05 126.07 27.26V38H120V17.77Z" fill="white"/>
<path d="M161.37 15.62H155.32V11H161.37V15.62ZM161.37 38.01H155.32V17.77H161.37V38.01Z" fill="white"/>
<path d="M166 22.37H163.74V17.77H166V16.72C166 11.03 170.77 10.52 173.73 10.52H174.6V15.08H173.91C173.652 15.0512 173.39 15.0811 173.144 15.1675C172.899 15.254 172.676 15.3947 172.492 15.5793C172.308 15.7638 172.169 15.9874 172.084 16.2334C171.999 16.4794 171.97 16.7415 172 17V17.8H174.55V22.4H172V38H166V22.37Z" fill="white"/>
<path d="M183.25 15.62H177.2V11H183.25V15.62ZM183.25 38.01H177.2V17.77H183.25V38.01Z" fill="white"/>
<path d="M208.08 30.32C207.46 32.9038 205.916 35.171 203.738 36.6934C201.56 38.2157 198.9 38.8878 196.261 38.5825C193.622 38.2771 191.185 37.0157 189.413 35.0363C187.64 33.057 186.654 30.497 186.64 27.84C186.653 25.1737 187.649 22.6059 189.438 20.6284C191.226 18.6509 193.682 17.4027 196.333 17.1228C198.985 16.8429 201.646 17.551 203.808 19.1115C205.97 20.672 207.481 22.9752 208.05 25.58H201.92C201.573 24.7116 200.965 23.9718 200.181 23.4617C199.397 22.9515 198.475 22.696 197.54 22.73C194.66 22.59 192.73 24.96 192.73 27.88C192.73 30.8 194.66 33 197.54 33C198.455 33.0297 199.358 32.7895 200.137 32.3093C200.915 31.8292 201.536 31.1303 201.92 30.3L208.08 30.32Z" fill="white"/>
<path d="M232.66 38H226.66V35.83H226.58C225.58 37.83 223.05 38.71 220.68 38.71C214.26 38.71 210.5 33.71 210.5 27.88C210.5 21.24 215.28 17.08 220.68 17.08C223.99 17.08 225.85 18.69 226.58 19.93H226.66V17.77H232.66V38ZM221.54 33C222.217 33.0099 222.889 32.8821 223.515 32.6245C224.141 32.3669 224.709 31.9848 225.183 31.5014C225.657 31.018 226.028 30.4433 226.273 29.8122C226.518 29.1811 226.633 28.5067 226.61 27.83C226.627 27.1482 226.505 26.4701 226.253 25.8364C226.001 25.2027 225.623 24.6265 225.143 24.1424C224.662 23.6583 224.089 23.2764 223.457 23.0195C222.826 22.7626 222.148 22.6361 221.466 22.6476C220.785 22.659 220.112 22.8082 219.489 23.0862C218.866 23.3642 218.306 23.7652 217.842 24.2651C217.378 24.7651 217.02 25.3537 216.79 25.9955C216.559 26.6373 216.46 27.3191 216.5 28C216.493 28.6642 216.619 29.3231 216.87 29.9381C217.121 30.5532 217.492 31.1121 217.961 31.5822C218.43 32.0523 218.988 32.4243 219.603 32.6763C220.217 32.9283 220.876 33.0554 221.54 33.05V33Z" fill="white"/>
<path d="M243.78 38H237.47V31.82H243.78V38Z" fill="white"/>
<path d="M255.48 34.11L254.06 38H246.66L257.49 11H262.92L273.64 38H266.17L264.86 34.1L255.48 34.11ZM257.38 28.64H263L260.23 19.42H260.12L257.38 28.64Z" fill="white"/>
<path d="M282.21 15.62H276.21V11H282.21V15.62ZM282.21 38.01H276.21V17.77H282.21V38.01Z" fill="white"/>
<path d="M29.1299 17.35C31.3231 17.5721 33.3942 18.4662 35.0599 19.91C35.3408 20.1888 35.6758 20.4071 36.0442 20.5516C36.4126 20.696 36.8067 20.7636 37.2022 20.75C37.5977 20.7364 37.9862 20.6421 38.3439 20.4727C38.7015 20.3034 39.0208 20.0626 39.2819 19.7653C39.543 19.4679 39.7405 19.1203 39.8622 18.7437C39.984 18.3672 40.0273 17.9697 39.9897 17.5758C39.952 17.1818 39.8341 16.7998 39.6433 16.4531C39.4524 16.1065 39.1927 15.8025 38.8799 15.56C38.3512 15.0309 37.7829 14.5428 37.1799 14.1C33.9424 11.9237 30.0213 11.0051 26.154 11.5171C22.2867 12.029 18.7397 13.9362 16.1799 16.88C13.8781 19.589 12.5578 22.9955 12.4326 26.5481C12.3075 30.1008 13.3848 33.5917 15.4902 36.456C17.5956 39.3203 20.606 41.3904 24.0341 42.3312C27.4622 43.2719 31.1074 43.0284 34.3799 41.64C36.5982 40.8328 38.5454 39.4192 39.9999 37.56C40.4447 36.9795 40.6546 36.2529 40.5879 35.5247C40.5212 34.7964 40.1828 34.12 39.6399 33.63C39.0823 33.1539 38.3732 32.8923 37.6399 32.8923C36.9067 32.8923 36.1975 33.1539 35.6399 33.63C34.9799 34.16 34.3699 34.75 33.6399 35.23C32.3361 36.0889 30.8457 36.6234 29.2931 36.7891C27.7406 36.9547 26.171 36.7466 24.7152 36.1821C23.2595 35.6177 21.9599 34.7132 20.9249 33.5442C19.8898 32.3753 19.1494 30.9757 18.7654 29.4623C18.3813 27.949 18.3648 26.3657 18.7172 24.8446C19.0696 23.3236 19.7807 21.9089 20.7912 20.7186C21.8016 19.5283 23.0821 18.597 24.5257 18.0023C25.9694 17.4076 27.5343 17.1668 29.0899 17.3L29.1299 17.35Z" fill="#1EEDCF"/>
<path d="M50 35.55C48.5 34.71 46.91 35.35 45.82 37.23C38.3 50.23 21.26 52.08 11.27 40.91C9.38504 38.7754 7.97099 36.2676 7.12002 33.55C7.03742 33.3176 6.94057 33.0905 6.83002 32.87C6.51329 31.7814 6.29245 30.6671 6.17002 29.54C5.79987 26.3647 6.14147 23.1468 7.17002 20.12C7.25336 19.9717 7.32685 19.818 7.39002 19.66C8.19817 17.624 9.29984 15.7171 10.66 14C12.5084 11.7003 14.8006 9.79582 17.4 8.4C21.2801 6.40862 25.6839 5.67465 30 6.3C31 6.44 32 6.65 32.93 6.86C33.1964 6.91983 33.4674 6.95663 33.74 6.97C37.8737 8.29359 41.494 10.869 44.1 14.34C44.69 15.13 45.23 15.97 45.77 16.81C46.77 18.43 48.37 18.96 49.83 18.16C51.45 17.27 51.83 15.8 50.83 13.95C50.64 13.59 50.45 13.25 50.26 12.95C44.26 2.41 30.26 -2.67 18.55 1.52C15.2789 2.62768 12.2386 4.32575 9.58002 6.53C6.71884 8.89493 4.40551 11.8531 2.80002 15.2C1.11667 18.5906 0.174689 22.3009 0.0367496 26.0838C-0.101189 29.8668 0.568078 33.6358 2.00002 37.14C2.13945 37.5121 2.2997 37.876 2.48002 38.23C2.63279 38.5226 2.81723 38.7976 3.03002 39.05L3.54002 39.98C9.40002 51.57 24.26 57.61 37.54 52.17C43.3032 49.8239 48.0646 45.5365 51 40.05C52 38.15 51.61 36.49 50 35.55Z" fill="#03C3F2"/>
<path d="M53.3998 23.74C51.9998 22 49.6298 21.68 47.3798 23C42.5598 25.85 39.3798 25.67 34.7698 22.29C33.5338 21.3824 32.0097 20.9559 30.4822 21.0903C28.9547 21.2246 27.5283 21.9106 26.4698 23.02C25.4743 24.2366 24.9705 25.7818 25.0575 27.3513C25.1445 28.9208 25.816 30.4009 26.9398 31.5C29.3298 33.74 32.9398 33.65 35.6198 31.3C39.6698 27.74 42.9498 27.4 47.4898 30.08C49.6498 31.36 51.8598 31.08 53.3298 29.44C54.0141 28.6518 54.3967 27.6465 54.4095 26.6028C54.4224 25.5591 54.0646 24.5447 53.3998 23.74Z" fill="url(#paint0_linear_2_110)"/>
</g>
<defs>
<linearGradient id="paint0_linear_2_110" x1="51.9398" y1="27.38" x2="22.5798" y2="27" gradientUnits="userSpaceOnUse">
<stop stop-color="#03C3F2"/>
<stop offset="0.32" stop-color="#04C5F0"/>
<stop offset="0.44" stop-color="#09CCEB"/>
<stop offset="0.52" stop-color="#10D7E1"/>
<stop offset="0.59" stop-color="#1BE8D3"/>
<stop offset="0.6" stop-color="#1EEDCF"/>
</linearGradient>
<clipPath id="clip0_2_110">
<rect width="282.21" height="54.19" fill="white"/>
</clipPath>
</defs>
</svg>
